{"title":"Fear.The.Walking.Dead.S01E01.HDTV.480p.x264.AAC-VYTO [P2PDL]","uid":12287201,"size":226997248,"categoryP":"video","categoryS":"hd___tv_shows","magnet":"?xt=urn:btih:0d343d8c49d33a5089b974c9a82bfad0ee1d0dcf&amp;dn=Fear.The.Walking.Dead.S01E01.HDTV.480p.x264.AAC-VYTO+%5BP2PDL%5D&amp;tr=udp%3A%2F%2Ftracker.openbittorrent.com%3A80&amp;tr=udp%3A%2F%2Fopen.demonii.com%3A1337&amp;tr=udp%3A%2F%2Ftracker.coppersurfer.tk%3A6969&amp;tr=udp%3A%2F%2Fexodus.desync.com%3A6969","seeders":22,"leechers":9,"uploader":"ValidusVyto","files":6,"time":1440486579,"description":"____    ____ ____    ____ .___________.  ______   \n     /   /      /   / |           | /  __    \n    /   /      /   /  `---|  |----`|  |  |  | \n        /     _    _/       |  |     |  |  |  | \n       /        |  |         |  |     |  `--'  | \n    __/         |__|         |__|      ______/  \n                                                  \nPresenting Small Encodes with quality for years!\n                                                                                                   \n                                                                                                   \n\nFear.The.Walking.Dead.S01E01.HDTV.480p.x264.AAC-VYTO\n\n\nGeneral\nFormat                         : MPEG-4\nFile size                      : 211 MiB\nDuration                       : 1h 3mn\nOverall bit rate               : 463 Kbps\n\nVideo\nFormat                         : AVC\nBit rate                       : 428 Kbps\nWidth                          : 720 pixels\nHeight                         : 400 pixels\nDisplay aspect ratio           : 16:9\nFrame rate mode                : Constant\nFrame rate                     : 23.976 fps\nBit depth                      : 8 bits\nStream size                    : 195 MiB (92%)\nWriting library                : x264 core 148 r2597\n\nAudio\nFormat                         : AAC\nBit rate mode                  : Variable\nBit rate                       : 32.0 Kbps\nChannel(s)                     : 2 channels \nChannel positions              : Front: L R\nSampling rate                  : 48.0 KHz \nStream size                    : 14.6 MiB (7%)\n\n\nScreenshots:\n &lt;a href=&quot;\nhttp://ititli.com/UZ&quot; rel=&quot;nofollow&quot; target=&quot;_NEW&quot;&gt;\nhttp://ititli.com/UZ&lt;/a&gt; &lt;a href=&quot;\nhttp://ititli.com/Uc&quot; rel=&quot;nofollow&quot; target=&quot;_NEW&quot;&gt;\nhttp://ititli.com/Uc&lt;/a&gt; &lt;a href=&quot;\nhttp://ititli.com/Ui&quot; rel=&quot;nofollow&quot; target=&quot;_NEW&quot;&gt;\nhttp://ititli.com/Ui&lt;/a&gt; &lt;a href=&quot;\nhttp://ititli.com/Up&quot; rel=&quot;nofollow&quot; target=&quot;_NEW&quot;&gt;\nhttp://ititli.com/Up&lt;/a&gt; &lt;a href=&quot;\nhttp://ititli.com/UD&quot; rel=&quot;nofollow&quot; target=&quot;_NEW&quot;&gt;\nhttp://ititli.com/UD&lt;/a&gt; &lt;a href=&quot;\nhttp://ititli.com/Ua&quot; rel=&quot;nofollow&quot; target=&quot;_NEW&quot;&gt;\nhttp://ititli.com/Ua&lt;/a&gt; &lt;a href=&quot;\nhttp://ititli.com/Ub&quot; rel=&quot;nofollow&quot; target=&quot;_NEW&quot;&gt;\nhttp://ititli.com/Ub&lt;/a&gt; &lt;a href=&quot;\nhttp://ititli.com/Uz&quot; rel=&quot;nofollow&quot; target=&quot;_NEW&quot;&gt;\nhttp://ititli.com/Uz&lt;/a&gt; &lt;a href=&quot;\nhttp://ititli.com/UI&quot; rel=&quot;nofollow&quot; target=&quot;_NEW&quot;&gt;\nhttp://ititli.com/UI&lt;/a&gt; &lt;a href=&quot;\nhttp://ititli.com/UO&quot; rel=&quot;nofollow&quot; target=&quot;_NEW&quot;&gt;\nhttp://ititli.com/UO&lt;/a&gt; &lt;a href=&quot;\nhttp://ititli.com/h9&quot; rel=&quot;nofollow&quot; target=&quot;_NEW&quot;&gt;\nhttp://ititli.com/h9&lt;/a&gt; &lt;a href=&quot;\nhttp://ititli.com/hX&quot; rel=&quot;nofollow&quot; target=&quot;_NEW&quot;&gt;\nhttp://ititli.com/hX&lt;/a&gt;\n\n----------------------------------------------------------------------------------------------------\n\n\nEncoder Notes: Looking For Early Access To Anything You Can Provide DVDScr, R5, DVDR, BluRay, Direct\nAudio, Music Releases and Seedboxes. If You Got anything to offer please contact us.\n\nSupport us by donating BC - 1FgwdzPsd1y25Gea8wP1qni35uGCtmkRCD","torrent":{"xt":"urn:btih:0d343d8c49d33a5089b974c9a82bfad0ee1d0dcf","amp;dn":"Fear.The.Walking.Dead.S01E01.HDTV.480p.x264.AAC-VYTO+%5BP2PDL%5D","amp;tr":["udp%3A%2F%2Ftracker.openbittorrent.com%3A80","udp%3A%2F%2Fopen.demonii.com%3A1337","udp%3A%2F%2Ftracker.coppersurfer.tk%3A6969","udp%3A%2F%2Fexodus.desync.com%3A6969"],"infoHash":"0d343d8c49d33a5089b974c9a82bfad0ee1d0dcf","infoHashBuffer":{"type":"Buffer","data":[13,52,61,140,73,211,58,80,137,185,116,201,168,43,250,208,238,29,13,207]},"announce":[],"urlList":[]}}